{
	"asset":{
		"generator":"Khronos glTF Blender I/O v4.4.56",
		"version":"2.0"
	},
	"extensionsUsed":[
		"KHR_materials_transmission",
		"KHR_materials_emissive_strength",
		"KHR_materials_volume"
	],
	"scene":0,
	"scenes":[
		{
			"name":"Scene",
			"nodes":[
				0,
				1,
				2,
				3,
				4,
				6,
				8,
				10,
				12,
				14,
				16,
				18,
				20,
				22,
				24,
				26,
				28,
				30,
				32,
				34,
				36,
				37,
				38,
				39,
				40,
				41,
				42,
				43,
				44,
				45,
				46,
				47,
				48,
				49,
				50
			]
		}
	],
	"nodes":[
		{
			"mesh":0,
			"name":"King_B"
		},
		{
			"mesh":1,
			"name":"King_W"
		},
		{
			"mesh":2,
			"name":"Queen_B"
		},
		{
			"mesh":3,
			"name":"Queen_W"
		},
		{
			"mesh":4,
			"name":"Chessboard"
		},
		{
			"mesh":5,
			"name":"Pawn_Top_W1",
			"translation":[
				-0.031249970197677612,
				-0.014926999807357788,
				0.031249985098838806
			]
		},
		{
			"children":[
				5
			],
			"mesh":6,
			"name":"Pawn_Body_W1",
			"scale":[
				5.200196266174316,
				5.200196266174316,
				5.200196266174316
			],
			"translation":[
				1.1368775367736816,
				0.021751876920461655,
				-0.826780378818512
			]
		},
		{
			"mesh":5,
			"name":"Pawn_Top_W2",
			"translation":[
				-0.031249985098838806,
				-0.014926999807357788,
				0.03125
			]
		},
		{
			"children":[
				7
			],
			"mesh":6,
			"name":"Pawn_Body_W2",
			"scale":[
				5.200196266174316,
				5.200196266174316,
				5.200196266174316
			],
			"translation":[
				0.8138083219528198,
				0.021751876920461655,
				-0.8272985816001892
			]
		},
		{
			"mesh":7,
			"name":"Pawn_Top_W3"
		},
		{
			"children":[
				9
			],
			"mesh":8,
			"name":"Pawn_Body_W3"
		},
		{
			"mesh":9,
			"name":"Pawn_Top_W4"
		},
		{
			"children":[
				11
			],
			"mesh":10,
			"name":"Pawn_Body_W4"
		},
		{
			"mesh":11,
			"name":"Pawn_Top_W5",
			"scale":[
				5.200196266174316,
				5.200196266174316,
				5.200196266174316
			],
			"translation":[
				-0.1612423062324524,
				0.021751876920461655,
				-0.8290472626686096
			]
		},
		{
			"children":[
				13
			],
			"mesh":12,
			"name":"Pawn_Body_W5"
		},
		{
			"mesh":5,
			"name":"Pawn_Top_W6",
			"translation":[
				-0.0312500074505806,
				-0.014926999807357788,
				0.03125
			]
		},
		{
			"children":[
				15
			],
			"mesh":6,
			"name":"Pawn_Body_W6",
			"scale":[
				5.200196266174316,
				5.200196266174316,
				5.200196266174316
			],
			"translation":[
				-0.4868827760219574,
				0.021751876920461655,
				-0.828097403049469
			]
		},
		{
			"mesh":5,
			"name":"Pawn_Top_W7",
			"translation":[
				-0.03125,
				-0.014926998876035213,
				0.03125
			]
		},
		{
			"children":[
				17
			],
			"mesh":6,
			"name":"Pawn_Body_W7",
			"scale":[
				5.200196266174316,
				5.200196266174316,
				5.200196266174316
			],
			"translation":[
				-0.8125836253166199,
				0.021751895546913147,
				-0.8290243744850159
			]
		},
		{
			"mesh":5,
			"name":"Pawn_Top_W8",
			"translation":[
				-0.031250014901161194,
				-0.014926999807357788,
				0.03125
			]
		},
		{
			"children":[
				19
			],
			"mesh":6,
			"name":"Pawn_Body_W8",
			"scale":[
				5.200196266174316,
				5.200196266174316,
				5.200196266174316
			],
			"translation":[
				-1.139203429222107,
				0.02175191417336464,
				-0.8283689618110657
			]
		},
		{
			"mesh":13,
			"name":"Pawn_Top_B1",
			"translation":[
				-0.031250014901161194,
				-0.014926999807357788,
				0.03125
			]
		},
		{
			"children":[
				21
			],
			"mesh":14,
			"name":"Pawn_Body_B1",
			"scale":[
				5.200196266174316,
				5.200196266174316,
				5.200196266174316
			],
			"translation":[
				-1.139203429222107,
				0.02175191417336464,
				0.797629177570343
			]
		},
		{
			"mesh":13,
			"name":"Pawn_Top_B2",
			"translation":[
				-0.03125,
				-0.014926999807357788,
				0.031249985098838806
			]
		},
		{
			"children":[
				23
			],
			"mesh":14,
			"name":"Pawn_Body_B2",
			"scale":[
				5.200196266174316,
				5.200196266174316,
				5.200196266174316
			],
			"translation":[
				-0.8142176866531372,
				0.02175191417336464,
				0.7965275049209595
			]
		},
		{
			"mesh":13,
			"name":"Pawn_Top_B3",
			"translation":[
				-0.031250014901161194,
				-0.014926999807357788,
				0.031249985098838806
			]
		},
		{
			"children":[
				25
			],
			"mesh":14,
			"name":"Pawn_Body_B3",
			"scale":[
				5.200196266174316,
				5.200196266174316,
				5.200196266174316
			],
			"translation":[
				-0.4870287775993347,
				0.02175191417336464,
				0.7970783710479736
			]
		},
		{
			"mesh":13,
			"name":"Pawn_Top_B4",
			"translation":[
				-0.0312499962747097,
				-0.014926999807357788,
				0.0312500074505806
			]
		},
		{
			"children":[
				27
			],
			"mesh":14,
			"name":"Pawn_Body_B4",
			"scale":[
				5.200196266174316,
				5.200196266174316,
				5.200196266174316
			],
			"translation":[
				-0.16204313933849335,
				0.02175191417336464,
				0.47099101543426514
			]
		},
		{
			"mesh":13,
			"name":"Pawn_Top_B5",
			"translation":[
				-0.031249994412064552,
				-0.014926999807357788,
				0.03125
			]
		},
		{
			"children":[
				29
			],
			"mesh":14,
			"name":"Pawn_Body_B5",
			"scale":[
				5.200196266174316,
				5.200196266174316,
				5.200196266174316
			],
			"translation":[
				0.16332809627056122,
				0.02175191417336464,
				0.7974088191986084
			]
		},
		{
			"mesh":13,
			"name":"Pawn_Top_B6",
			"translation":[
				-0.031249992549419403,
				-0.014926999807357788,
				0.031250014901161194
			]
		},
		{
			"children":[
				31
			],
			"mesh":14,
			"name":"Pawn_Body_B6",
			"scale":[
				5.200196266174316,
				5.200196266174316,
				5.200196266174316
			],
			"translation":[
				0.488699346780777,
				0.02175191417336464,
				0.7961419224739075
			]
		},
		{
			"mesh":15,
			"name":"Pawn_Top_B7"
		},
		{
			"children":[
				33
			],
			"mesh":16,
			"name":"Pawn_Body_B7"
		},
		{
			"mesh":13,
			"name":"Pawn_Top_B8",
			"translation":[
				-0.031249970197677612,
				-0.014926999807357788,
				0.031250014901161194
			]
		},
		{
			"children":[
				35
			],
			"mesh":14,
			"name":"Pawn_Body_B8",
			"scale":[
				5.200196266174316,
				5.200196266174316,
				5.200196266174316
			],
			"translation":[
				1.1384503841400146,
				0.02175191417336464,
				0.7971333861351013
			]
		},
		{
			"mesh":17,
			"name":"Castle_B1"
		},
		{
			"mesh":18,
			"name":"Castle_B2"
		},
		{
			"mesh":19,
			"name":"Castle_W1"
		},
		{
			"mesh":20,
			"name":"Castle_W2",
			"scale":[
				5.200196266174316,
				5.200196266174316,
				5.200196266174316
			],
			"translation":[
				-1.1359606981277466,
				0.03305726498365402,
				-1.1597485542297363
			]
		},
		{
			"mesh":21,
			"name":"Knight_B1"
		},
		{
			"mesh":22,
			"name":"Knight_B2"
		},
		{
			"mesh":23,
			"name":"Knight_W1"
		},
		{
			"mesh":24,
			"name":"Knight_W2",
			"rotation":[
				0,
				-1,
				0,
				4.371138828673793e-08
			],
			"scale":[
				5.200196266174316,
				5.200196266174316,
				5.200196266174316
			],
			"translation":[
				-0.8137697577476501,
				0.03242787718772888,
				-1.1600756645202637
			]
		},
		{
			"mesh":25,
			"name":"Bishop_B1"
		},
		{
			"mesh":26,
			"name":"Bishop_B2"
		},
		{
			"mesh":27,
			"name":"Bishop_W1"
		},
		{
			"mesh":28,
			"name":"Bishop_W2",
			"scale":[
				5.200196266174316,
				5.200196266174316,
				5.200196266174316
			],
			"translation":[
				-0.4888330101966858,
				0.03242691233754158,
				-1.1629207134246826
			]
		},
		{
			"camera":0,
			"name":"Camera",
			"rotation":[
				0,
				0.7071068286895752,
				0,
				0.7071068286895752
			],
			"translation":[
				8.267182350158691,
				1.1996290683746338,
				0
			]
		},
		{
			"mesh":29,
			"name":"Cube"
		}
	],
	"cameras":[
		{
			"name":"Camera.001",
			"perspective":{
				"aspectRatio":1.7777777777777777,
				"yfov":0.39959651231765747,
				"zfar":100,
				"znear":0.10000000149011612
			},
			"type":"perspective"
		}
	],
	"materials":[
		{
			"name":"King_Black",
			"normalTexture":{
				"index":0
			},
			"occlusionTexture":{
				"index":1
			},
			"pbrMetallicRoughness":{
				"baseColorTexture":{
					"index":2
				},
				"metallicRoughnessTexture":{
					"index":1
				}
			}
		},
		{
			"name":"King_White",
			"normalTexture":{
				"index":3
			},
			"occlusionTexture":{
				"index":4
			},
			"pbrMetallicRoughness":{
				"baseColorTexture":{
					"index":5
				},
				"metallicRoughnessTexture":{
					"index":4
				}
			}
		},
		{
			"name":"Queen_Black",
			"normalTexture":{
				"index":6
			},
			"occlusionTexture":{
				"index":7
			},
			"pbrMetallicRoughness":{
				"baseColorTexture":{
					"index":8
				},
				"metallicRoughnessTexture":{
					"index":7
				}
			}
		},
		{
			"name":"Queen_White",
			"normalTexture":{
				"index":9
			},
			"occlusionTexture":{
				"index":10
			},
			"pbrMetallicRoughness":{
				"baseColorTexture":{
					"index":11
				},
				"metallicRoughnessTexture":{
					"index":10
				}
			}
		},
		{
			"name":"Chessboard",
			"normalTexture":{
				"index":12
			},
			"occlusionTexture":{
				"index":13
			},
			"pbrMetallicRoughness":{
				"baseColorTexture":{
					"index":14
				},
				"metallicRoughnessTexture":{
					"index":13
				}
			}
		},
		{
			"doubleSided":false,
			"extensions":{
				"KHR_materials_transmission":{
					"transmissionFactor":1
				},
				"KHR_materials_volume":{
					"attenuationColor":[
						0.800000011920929,
						0.800000011920929,
						0.800000011920929
					],
					"thicknessFactor":0.2199999988079071
				}
			},
			"name":"Pawn_Top_White",
			"normalTexture":{
				"index":15
			},
			"pbrMetallicRoughness":{
				"baseColorFactor":[
					1,
					1,
					0.828000009059906,
					1
				],
				"metallicRoughnessTexture":{
					"index":16
				}
			}
		},
		{
			"name":"Pawn_Body_White",
			"normalTexture":{
				"index":17
			},
			"occlusionTexture":{
				"index":18
			},
			"pbrMetallicRoughness":{
				"baseColorTexture":{
					"index":19
				},
				"metallicRoughnessTexture":{
					"index":18
				}
			}
		},
		{
			"doubleSided":false,
			"extensions":{
				"KHR_materials_transmission":{
					"transmissionFactor":1
				},
				"KHR_materials_volume":{
					"attenuationColor":[
						0.800000011920929,
						0.800000011920929,
						0.800000011920929
					],
					"thicknessFactor":0.2199999988079071
				}
			},
			"name":"Pawn_Top_Black",
			"normalTexture":{
				"index":20
			},
			"pbrMetallicRoughness":{
				"baseColorFactor":[
					0.2994999885559082,
					0.5,
					0.44999998807907104,
					1
				],
				"metallicRoughnessTexture":{
					"index":21
				}
			}
		},
		{
			"name":"Pawn_Body_Black",
			"normalTexture":{
				"index":22
			},
			"occlusionTexture":{
				"index":23
			},
			"pbrMetallicRoughness":{
				"baseColorTexture":{
					"index":24
				},
				"metallicRoughnessTexture":{
					"index":23
				}
			}
		},
		{
			"name":"Castle_Black",
			"normalTexture":{
				"index":25
			},
			"occlusionTexture":{
				"index":26
			},
			"pbrMetallicRoughness":{
				"baseColorTexture":{
					"index":27
				},
				"metallicRoughnessTexture":{
					"index":26
				}
			}
		},
		{
			"name":"Castle_White",
			"normalTexture":{
				"index":28
			},
			"occlusionTexture":{
				"index":29
			},
			"pbrMetallicRoughness":{
				"baseColorTexture":{
					"index":30
				},
				"metallicRoughnessTexture":{
					"index":29
				}
			}
		},
		{
			"name":"Knight_Black",
			"normalTexture":{
				"index":31
			},
			"occlusionTexture":{
				"index":32
			},
			"pbrMetallicRoughness":{
				"baseColorTexture":{
					"index":33
				},
				"metallicRoughnessTexture":{
					"index":32
				}
			}
		},
		{
			"name":"Knight_White",
			"normalTexture":{
				"index":34
			},
			"occlusionTexture":{
				"index":35
			},
			"pbrMetallicRoughness":{
				"baseColorTexture":{
					"index":36
				},
				"metallicRoughnessTexture":{
					"index":35
				}
			}
		},
		{
			"name":"Bishop_Black",
			"normalTexture":{
				"index":37
			},
			"occlusionTexture":{
				"index":38
			},
			"pbrMetallicRoughness":{
				"baseColorTexture":{
					"index":39
				},
				"metallicRoughnessTexture":{
					"index":38
				}
			}
		},
		{
			"name":"Bishop_White",
			"normalTexture":{
				"index":40
			},
			"occlusionTexture":{
				"index":41
			},
			"pbrMetallicRoughness":{
				"baseColorTexture":{
					"index":42
				},
				"metallicRoughnessTexture":{
					"index":41
				}
			}
		},
		{
			"doubleSided":true,
			"name":"Material.003",
			"pbrMetallicRoughness":{
				"baseColorFactor":[
					0.800000011920929,
					0.800000011920929,
					0.800000011920929,
					1
				],
				"metallicFactor":0,
				"roughnessFactor":0.5
			}
		},
		{
			"doubleSided":true,
			"emissiveFactor":[
				1,
				1,
				1
			],
			"extensions":{
				"KHR_materials_emissive_strength":{
					"emissiveStrength":400
				}
			},
			"name":"Material.004",
			"pbrMetallicRoughness":{
				"baseColorFactor":[
					0.800000011920929,
					0.800000011920929,
					0.800000011920929,
					1
				],
				"metallicFactor":0,
				"roughnessFactor":0.5
			}
		},
		{
			"doubleSided":true,
			"name":"Material.BackWall",
			"pbrMetallicRoughness":{
				"baseColorFactor":[
					0.8010324239730835,
					0.16138911247253418,
					0.13824200630187988,
					1
				],
				"metallicFactor":0,
				"roughnessFactor":0.5
			}
		}
	],
	"meshes":[
		{
			"name":"King_Shared",
			"primitives":[
				{
					"attributes":{
						"POSITION":0,
						"NORMAL":1,
						"TEXCOORD_0":2,
						"TANGENT":3
					},
					"indices":4,
					"material":0
				}
			]
		},
		{
			"name":"King_Shared.001",
			"primitives":[
				{
					"attributes":{
						"POSITION":5,
						"NORMAL":6,
						"TEXCOORD_0":7,
						"TANGENT":8
					},
					"indices":9,
					"material":1
				}
			]
		},
		{
			"name":"Queen_Shared",
			"primitives":[
				{
					"attributes":{
						"POSITION":10,
						"NORMAL":11,
						"TEXCOORD_0":12,
						"TANGENT":13
					},
					"indices":14,
					"material":2
				}
			]
		},
		{
			"name":"Queen_Shared.001",
			"primitives":[
				{
					"attributes":{
						"POSITION":15,
						"NORMAL":16,
						"TEXCOORD_0":17,
						"TANGENT":18
					},
					"indices":19,
					"material":3
				}
			]
		},
		{
			"name":"Chessboard",
			"primitives":[
				{
					"attributes":{
						"POSITION":20,
						"NORMAL":21,
						"TEXCOORD_0":22,
						"TANGENT":23
					},
					"indices":24,
					"material":4
				}
			]
		},
		{
			"name":"Pawn_Top_Shared",
			"primitives":[
				{
					"attributes":{
						"POSITION":25,
						"NORMAL":26,
						"TEXCOORD_0":27,
						"TANGENT":28
					},
					"indices":29,
					"material":5
				}
			]
		},
		{
			"name":"Pawn_Body_Shared",
			"primitives":[
				{
					"attributes":{
						"POSITION":30,
						"NORMAL":31,
						"TEXCOORD_0":32,
						"TANGENT":33
					},
					"indices":34,
					"material":6
				}
			]
		},
		{
			"name":"Pawn_Top_Shared.002",
			"primitives":[
				{
					"attributes":{
						"POSITION":35,
						"NORMAL":36,
						"TEXCOORD_0":37,
						"TANGENT":38
					},
					"indices":29,
					"material":5
				}
			]
		},
		{
			"name":"Pawn_Body_Shared.004",
			"primitives":[
				{
					"attributes":{
						"POSITION":39,
						"NORMAL":40,
						"TEXCOORD_0":41,
						"TANGENT":42
					},
					"indices":43,
					"material":6
				}
			]
		},
		{
			"name":"Pawn_Top_Shared.003",
			"primitives":[
				{
					"attributes":{
						"POSITION":44,
						"NORMAL":45,
						"TEXCOORD_0":46,
						"TANGENT":47
					},
					"indices":29,
					"material":5
				}
			]
		},
		{
			"name":"Pawn_Body_Shared.003",
			"primitives":[
				{
					"attributes":{
						"POSITION":48,
						"NORMAL":49,
						"TEXCOORD_0":50,
						"TANGENT":51
					},
					"indices":52,
					"material":6
				}
			]
		},
		{
			"name":"Pawn_Top_Shared.004",
			"primitives":[
				{
					"attributes":{
						"POSITION":53,
						"NORMAL":54,
						"TEXCOORD_0":55,
						"TANGENT":56
					},
					"indices":29,
					"material":5
				}
			]
		},
		{
			"name":"Pawn_Body_Shared.005",
			"primitives":[
				{
					"attributes":{
						"POSITION":57,
						"NORMAL":58,
						"TEXCOORD_0":59,
						"TANGENT":60
					},
					"indices":61,
					"material":6
				}
			]
		},
		{
			"name":"Pawn_Top_Shared.001",
			"primitives":[
				{
					"attributes":{
						"POSITION":62,
						"NORMAL":63,
						"TEXCOORD_0":64,
						"TANGENT":65
					},
					"indices":29,
					"material":7
				}
			]
		},
		{
			"name":"Pawn_Body_Shared.001",
			"primitives":[
				{
					"attributes":{
						"POSITION":66,
						"NORMAL":67,
						"TEXCOORD_0":68,
						"TANGENT":69
					},
					"indices":34,
					"material":8
				}
			]
		},
		{
			"name":"Pawn_Top_Shared.005",
			"primitives":[
				{
					"attributes":{
						"POSITION":70,
						"NORMAL":71,
						"TEXCOORD_0":72,
						"TANGENT":73
					},
					"indices":29,
					"material":7
				}
			]
		},
		{
			"name":"Pawn_Body_Shared.002",
			"primitives":[
				{
					"attributes":{
						"POSITION":74,
						"NORMAL":75,
						"TEXCOORD_0":76,
						"TANGENT":77
					},
					"indices":78,
					"material":8
				}
			]
		},
		{
			"name":"Castle_Shared",
			"primitives":[
				{
					"attributes":{
						"POSITION":79,
						"NORMAL":80,
						"TEXCOORD_0":81,
						"TANGENT":82
					},
					"indices":83,
					"material":9
				}
			]
		},
		{
			"name":"Castle_Shared.002",
			"primitives":[
				{
					"attributes":{
						"POSITION":84,
						"NORMAL":85,
						"TEXCOORD_0":86,
						"TANGENT":87
					},
					"indices":88,
					"material":9
				}
			]
		},
		{
			"name":"Castle_Shared.003",
			"primitives":[
				{
					"attributes":{
						"POSITION":89,
						"NORMAL":90,
						"TEXCOORD_0":91,
						"TANGENT":92
					},
					"indices":93,
					"material":10
				}
			]
		},
		{
			"name":"Castle_Shared.001",
			"primitives":[
				{
					"attributes":{
						"POSITION":94,
						"NORMAL":95,
						"TEXCOORD_0":96,
						"TANGENT":97
					},
					"indices":98,
					"material":10
				}
			]
		},
		{
			"name":"Knight_Shared",
			"primitives":[
				{
					"attributes":{
						"POSITION":99,
						"NORMAL":100,
						"TEXCOORD_0":101,
						"TANGENT":102
					},
					"indices":103,
					"material":11
				}
			]
		},
		{
			"name":"Knight_Shared.002",
			"primitives":[
				{
					"attributes":{
						"POSITION":104,
						"NORMAL":105,
						"TEXCOORD_0":106,
						"TANGENT":107
					},
					"indices":103,
					"material":11
				}
			]
		},
		{
			"name":"Knight_Shared.003",
			"primitives":[
				{
					"attributes":{
						"POSITION":108,
						"NORMAL":109,
						"TEXCOORD_0":110,
						"TANGENT":111
					},
					"indices":112,
					"material":12
				}
			]
		},
		{
			"name":"Knight_Shared.001",
			"primitives":[
				{
					"attributes":{
						"POSITION":113,
						"NORMAL":114,
						"TEXCOORD_0":115,
						"TANGENT":116
					},
					"indices":103,
					"material":12
				}
			]
		},
		{
			"name":"Bishop_Shared",
			"primitives":[
				{
					"attributes":{
						"POSITION":117,
						"NORMAL":118,
						"TEXCOORD_0":119,
						"TANGENT":120
					},
					"indices":121,
					"material":13
				}
			]
		},
		{
			"name":"Bishop_Shared.002",
			"primitives":[
				{
					"attributes":{
						"POSITION":122,
						"NORMAL":123,
						"TEXCOORD_0":124,
						"TANGENT":125
					},
					"indices":126,
					"material":13
				}
			]
		},
		{
			"name":"Bishop_Shared.003",
			"primitives":[
				{
					"attributes":{
						"POSITION":127,
						"NORMAL":128,
						"TEXCOORD_0":129,
						"TANGENT":130
					},
					"indices":131,
					"material":14
				}
			]
		},
		{
			"name":"Bishop_Shared.001",
			"primitives":[
				{
					"attributes":{
						"POSITION":132,
						"NORMAL":133,
						"TEXCOORD_0":134,
						"TANGENT":135
					},
					"indices":136,
					"material":14
				}
			]
		},
		{
			"name":"Cube.001",
			"primitives":[
				{
					"attributes":{
						"POSITION":137,
						"NORMAL":138,
						"TEXCOORD_0":139,
						"TANGENT":140
					},
					"indices":141,
					"material":15
				},
				{
					"attributes":{
						"POSITION":142,
						"NORMAL":143,
						"TEXCOORD_0":144,
						"TANGENT":145
					},
					"indices":146,
					"material":16
				},
				{
					"attributes":{
						"POSITION":147,
						"NORMAL":148,
						"TEXCOORD_0":149,
						"TANGENT":150
					},
					"indices":151,
					"material":17
				}
			]
		}
	],
	"textures":[
		{
			"sampler":0,
			"source":0
		},
		{
			"sampler":0,
			"source":1
		},
		{
			"sampler":0,
			"source":2
		},
		{
			"sampler":0,
			"source":3
		},
		{
			"sampler":0,
			"source":4
		},
		{
			"sampler":0,
			"source":5
		},
		{
			"sampler":0,
			"source":6
		},
		{
			"sampler":0,
			"source":7
		},
		{
			"sampler":0,
			"source":8
		},
		{
			"sampler":0,
			"source":9
		},
		{
			"sampler":0,
			"source":10
		},
		{
			"sampler":0,
			"source":11
		},
		{
			"sampler":0,
			"source":12
		},
		{
			"sampler":0,
			"source":13
		},
		{
			"sampler":0,
			"source":14
		},
		{
			"sampler":0,
			"source":15
		},
		{
			"sampler":0,
			"source":16
		},
		{
			"sampler":0,
			"source":15
		},
		{
			"sampler":0,
			"source":16
		},
		{
			"sampler":0,
			"source":17
		},
		{
			"sampler":0,
			"source":15
		},
		{
			"sampler":0,
			"source":16
		},
		{
			"sampler":0,
			"source":15
		},
		{
			"sampler":0,
			"source":16
		},
		{
			"sampler":0,
			"source":18
		},
		{
			"sampler":0,
			"source":19
		},
		{
			"sampler":0,
			"source":20
		},
		{
			"sampler":0,
			"source":21
		},
		{
			"sampler":0,
			"source":19
		},
		{
			"sampler":0,
			"source":20
		},
		{
			"sampler":0,
			"source":22
		},
		{
			"sampler":0,
			"source":23
		},
		{
			"sampler":0,
			"source":24
		},
		{
			"sampler":0,
			"source":25
		},
		{
			"sampler":0,
			"source":23
		},
		{
			"sampler":0,
			"source":24
		},
		{
			"sampler":0,
			"source":26
		},
		{
			"sampler":0,
			"source":27
		},
		{
			"sampler":0,
			"source":28
		},
		{
			"sampler":0,
			"source":29
		},
		{
			"sampler":0,
			"source":30
		},
		{
			"sampler":0,
			"source":31
		},
		{
			"sampler":0,
			"source":32
		}
	],
	"images":[
		{
			"mimeType":"image/jpeg",
			"name":"King_black_normal",
			"uri":"King_black_normal.jpg"
		},
		{
			"mimeType":"image/jpeg",
			"name":"King_black_ORM",
			"uri":"King_black_ORM.jpg"
		},
		{
			"mimeType":"image/jpeg",
			"name":"king_black_base_color",
			"uri":"king_black_base_color.jpg"
		},
		{
			"mimeType":"image/jpeg",
			"name":"King_white_normal",
			"uri":"King_white_normal.jpg"
		},
		{
			"mimeType":"image/jpeg",
			"name":"King_white_ORM",
			"uri":"King_white_ORM.jpg"
		},
		{
			"mimeType":"image/jpeg",
			"name":"king_white_base_color",
			"uri":"king_white_base_color.jpg"
		},
		{
			"mimeType":"image/jpeg",
			"name":"Queen_black_normal",
			"uri":"Queen_black_normal.jpg"
		},
		{
			"mimeType":"image/jpeg",
			"name":"Queen_black_ORM",
			"uri":"Queen_black_ORM.jpg"
		},
		{
			"mimeType":"image/jpeg",
			"name":"queen_black_base_color",
			"uri":"queen_black_base_color.jpg"
		},
		{
			"mimeType":"image/jpeg",
			"name":"Queen_white_normal",
			"uri":"Queen_white_normal.jpg"
		},
		{
			"mimeType":"image/jpeg",
			"name":"Queen_white_ORM",
			"uri":"Queen_white_ORM.jpg"
		},
		{
			"mimeType":"image/jpeg",
			"name":"queen_white_base_color",
			"uri":"queen_white_base_color.jpg"
		},
		{
			"mimeType":"image/jpeg",
			"name":"chessboard_normal",
			"uri":"chessboard_normal.jpg"
		},
		{
			"mimeType":"image/jpeg",
			"name":"Chessboard_ORM",
			"uri":"Chessboard_ORM.jpg"
		},
		{
			"mimeType":"image/jpeg",
			"name":"chessboard_base_color",
			"uri":"chessboard_base_color.jpg"
		},
		{
			"mimeType":"image/jpeg",
			"name":"Pawn_normal",
			"uri":"Pawn_normal.jpg"
		},
		{
			"mimeType":"image/jpeg",
			"name":"Pawn_ORM",
			"uri":"Pawn_ORM.jpg"
		},
		{
			"mimeType":"image/jpeg",
			"name":"pawn_white_base_color",
			"uri":"pawn_white_base_color.jpg"
		},
		{
			"mimeType":"image/jpeg",
			"name":"pawn_black_base_color",
			"uri":"pawn_black_base_color.jpg"
		},
		{
			"mimeType":"image/jpeg",
			"name":"Castle_normal",
			"uri":"Castle_normal.jpg"
		},
		{
			"mimeType":"image/jpeg",
			"name":"Castle_ORM",
			"uri":"Castle_ORM.jpg"
		},
		{
			"mimeType":"image/jpeg",
			"name":"castle_black_base_color",
			"uri":"castle_black_base_color.jpg"
		},
		{
			"mimeType":"image/jpeg",
			"name":"castle_white_base_color",
			"uri":"castle_white_base_color.jpg"
		},
		{
			"mimeType":"image/jpeg",
			"name":"Knight_normal",
			"uri":"Knight_normal.jpg"
		},
		{
			"mimeType":"image/jpeg",
			"name":"Knight_ORM",
			"uri":"Knight_ORM.jpg"
		},
		{
			"mimeType":"image/jpeg",
			"name":"knight_black_base_color",
			"uri":"knight_black_base_color.jpg"
		},
		{
			"mimeType":"image/jpeg",
			"name":"knight_white_base_color",
			"uri":"knight_white_base_color.jpg"
		},
		{
			"mimeType":"image/jpeg",
			"name":"bishop_black_normal",
			"uri":"bishop_black_normal.jpg"
		},
		{
			"mimeType":"image/jpeg",
			"name":"Bishop_black_ORM",
			"uri":"Bishop_black_ORM.jpg"
		},
		{
			"mimeType":"image/jpeg",
			"name":"bishop_black_base_color",
			"uri":"bishop_black_base_color.jpg"
		},
		{
			"mimeType":"image/jpeg",
			"name":"bishop_white_normal",
			"uri":"bishop_white_normal.jpg"
		},
		{
			"mimeType":"image/jpeg",
			"name":"Bishop_white_ORM",
			"uri":"Bishop_white_ORM.jpg"
		},
		{
			"mimeType":"image/jpeg",
			"name":"bishop_white_base_color",
			"uri":"bishop_white_base_color.jpg"
		}
	],
	"accessors":[
		{
			"bufferView":0,
			"componentType":5126,
			"count":30017,
			"max":[
				-0.01676882803440094,
				0.8229397535324097,
				1.274704933166504
			],
			"min":[
				-0.3083499073982239,
				0.03489210829138756,
				0.9831238389015198
			],
			"type":"VEC3"
		},
		{
			"bufferView":1,
			"componentType":5126,
			"count":30017,
			"type":"VEC3"
		},
		{
			"bufferView":2,
			"componentType":5126,
			"count":30017,
			"type":"VEC2"
		},
		{
			"bufferView":3,
			"componentType":5126,
			"count":30017,
			"type":"VEC4"
		},
		{
			"bufferView":4,
			"componentType":5123,
			"count":121440,
			"type":"SCALAR"
		},
		{
			"bufferView":5,
			"componentType":5126,
			"count":30027,
			"max":[
				-0.018531158566474915,
				0.8229401111602783,
				-1.0152878761291504
			],
			"min":[
				-0.31011223793029785,
				0.034892477095127106,
				-1.3068687915802002
			],
			"type":"VEC3"
		},
		{
			"bufferView":6,
			"componentType":5126,
			"count":30027,
			"type":"VEC3"
		},
		{
			"bufferView":7,
			"componentType":5126,
			"count":30027,
			"type":"VEC2"
		},
		{
			"bufferView":8,
			"componentType":5126,
			"count":30027,
			"type":"VEC4"
		},
		{
			"bufferView":9,
			"componentType":5123,
			"count":121440,
			"type":"SCALAR"
		},
		{
			"bufferView":10,
			"componentType":5126,
			"count":20965,
			"max":[
				0.29930219054222107,
				0.7436949610710144,
				1.266256332397461
			],
			"min":[
				0.022007018327713013,
				0.035773660987615585,
				0.9889612197875977
			],
			"type":"VEC3"
		},
		{
			"bufferView":11,
			"componentType":5126,
			"count":20965,
			"type":"VEC3"
		},
		{
			"bufferView":12,
			"componentType":5126,
			"count":20965,
			"type":"VEC2"
		},
		{
			"bufferView":13,
			"componentType":5126,
			"count":20965,
			"type":"VEC4"
		},
		{
			"bufferView":14,
			"componentType":5123,
			"count":103104,
			"type":"SCALAR"
		},
		{
			"bufferView":15,
			"componentType":5126,
			"count":20963,
			"max":[
				0.3002088963985443,
				0.7397372722625732,
				-1.0224307775497437
			],
			"min":[
				0.022913724184036255,
				0.03181593120098114,
				-1.299725890159607
			],
			"type":"VEC3"
		},
		{
			"bufferView":16,
			"componentType":5126,
			"count":20963,
			"type":"VEC3"
		},
		{
			"bufferView":17,
			"componentType":5126,
			"count":20963,
			"type":"VEC2"
		},
		{
			"bufferView":18,
			"componentType":5126,
			"count":20963,
			"type":"VEC4"
		},
		{
			"bufferView":19,
			"componentType":5123,
			"count":103104,
			"type":"SCALAR"
		},
		{
			"bufferView":20,
			"componentType":5126,
			"count":113089,
			"max":[
				1.8349974155426025,
				0.040410660207271576,
				1.8185502290725708
			],
			"min":[
				-1.8333048820495605,
				-0.055871739983558655,
				-1.8497520685195923
			],
			"type":"VEC3"
		},
		{
			"bufferView":21,
			"componentType":5126,
			"count":113089,
			"type":"VEC3"
		},
		{
			"bufferView":22,
			"componentType":5126,
			"count":113089,
			"type":"VEC2"
		},
		{
			"bufferView":23,
			"componentType":5126,
			"count":113089,
			"type":"VEC4"
		},
		{
			"bufferView":24,
			"componentType":5125,
			"count":277248,
			"type":"SCALAR"
		},
		{
			"bufferView":25,
			"componentType":5126,
			"count":1131,
			"max":[
				0.04213219881057739,
				0.08137139678001404,
				-0.020367786288261414
			],
			"min":[
				0.02036779560148716,
				0.0592837817966938,
				-0.042132191359996796
			],
			"type":"VEC3"
		},
		{
			"bufferView":26,
			"componentType":5126,
			"count":1131,
			"type":"VEC3"
		},
		{
			"bufferView":27,
			"componentType":5126,
			"count":1131,
			"type":"VEC2"
		},
		{
			"bufferView":28,
			"componentType":5126,
			"count":1131,
			"type":"VEC4"
		},
		{
			"bufferView":29,
			"componentType":5123,
			"count":6624,
			"type":"SCALAR"
		},
		{
			"bufferView":30,
			"componentType":5126,
			"count":26773,
			"max":[
				0.021040337160229683,
				0.04976364225149155,
				0.021040335297584534
			],
			"min":[
				-0.021040331572294235,
				0,
				-0.021040333434939384
			],
			"type":"VEC3"
		},
		{
			"bufferView":31,
			"componentType":5126,
			"count":26773,
			"type":"VEC3"
		},
		{
			"bufferView":32,
			"componentType":5126,
			"count":26773,
			"type":"VEC2"
		},
		{
			"bufferView":33,
			"componentType":5126,
			"count":26773,
			"type":"VEC4"
		},
		{
			"bufferView":34,
			"componentType":5123,
			"count":141696,
			"type":"SCALAR"
		},
		{
			"bufferView":35,
			"componentType":5126,
			"count":1131,
			"max":[
				0.5440873503684998,
				0.36727577447891235,
				-0.4486050009727478
			],
			"min":[
				0.4309081733226776,
				0.25241583585739136,
				-0.5617842078208923
			],
			"type":"VEC3"
		},
		{
			"bufferView":36,
			"componentType":5126,
			"count":1131,
			"type":"VEC3"
		},
		{
			"bufferView":37,
			"componentType":5126,
			"count":1131,
			"type":"VEC2"
		},
		{
			"bufferView":38,
			"componentType":5126,
			"count":1131,
			"type":"VEC4"
		},
		{
			"bufferView":39,
			"componentType":5126,
			"count":26781,
			"max":[
				0.5969116687774658,
				0.2805325984954834,
				-0.3957808017730713
			],
			"min":[
				0.3780839145183563,
				0.021751876920461655,
				-0.6146085262298584
			],
			"type":"VEC3"
		},
		{
			"bufferView":40,
			"componentType":5126,
			"count":26781,
			"type":"VEC3"
		},
		{
			"bufferView":41,
			"componentType":5126,
			"count":26781,
			"type":"VEC2"
		},
		{
			"bufferView":42,
			"componentType":5126,
			"count":26781,
			"type":"VEC4"
		},
		{
			"bufferView":43,
			"componentType":5123,
			"count":141696,
			"type":"SCALAR"
		},
		{
			"bufferView":44,
			"componentType":5126,
			"count":1131,
			"max":[
				0.21994201838970184,
				0.36727577447891235,
				-0.12151734530925751
			],
			"min":[
				0.1067628487944603,
				0.25241583585739136,
				-0.23469652235507965
			],
			"type":"VEC3"
		},
		{
			"bufferView":45,
			"componentType":5126,
			"count":1131,
			"type":"VEC3"
		},
		{
			"bufferView":46,
			"componentType":5126,
			"count":1131,
			"type":"VEC2"
		},
		{
			"bufferView":47,
			"componentType":5126,
			"count":1131,
			"type":"VEC4"
		},
		{
			"bufferView":48,
			"componentType":5126,
			"count":26775,
			"max":[
				0.2727662920951843,
				0.2805325984954834,
				-0.0686931237578392
			],
			"min":[
				0.05393856018781662,
				0.021751876920461655,
				-0.2875208556652069
			],
			"type":"VEC3"
		},
		{
			"bufferView":49,
			"componentType":5126,
			"count":26775,
			"type":"VEC3"
		},
		{
			"bufferView":50,
			"componentType":5126,
			"count":26775,
			"type":"VEC2"
		},
		{
			"bufferView":51,
			"componentType":5126,
			"count":26775,
			"type":"VEC4"
		},
		{
			"bufferView":52,
			"componentType":5123,
			"count":141696,
			"type":"SCALAR"
		},
		{
			"bufferView":53,
			"componentType":5126,
			"count":1131,
			"max":[
				0.010882198810577393,
				0.06644439697265625,
				0.01088222861289978
			],
			"min":[
				-0.01088220439851284,
				0.044356781989336014,
				-0.010882176458835602
			],
			"type":"VEC3"
		},
		{
			"bufferView":54,
			"componentType":5126,
			"count":1131,
			"type":"VEC3"
		},
		{
			"bufferView":55,
			"componentType":5126,
			"count":1131,
			"type":"VEC2"
		},
		{
			"bufferView":56,
			"componentType":5126,
			"count":1131,
			"type":"VEC4"
		},
		{
			"bufferView":57,
			"componentType":5126,
			"count":26782,
			"max":[
				-0.05182842165231705,
				0.2805325984954834,
				-0.7196334004402161
			],
			"min":[
				-0.27065616846084595,
				0.021751876920461655,
				-0.9384611248970032
			],
			"type":"VEC3"
		},
		{
			"bufferView":58,
			"componentType":5126,
			"count":26782,
			"type":"VEC3"
		},
		{
			"bufferView":59,
			"componentType":5126,
			"count":26782,
			"type":"VEC2"
		},
		{
			"bufferView":60,
			"componentType":5126,
			"count":26782,
			"type":"VEC4"
		},
		{
			"bufferView":61,
			"componentType":5123,
			"count":141696,
			"type":"SCALAR"
		},
		{
			"bufferView":62,
			"componentType":5126,
			"count":1131,
			"max":[
				0.04213219881057739,
				0.08137139678001404,
				-0.020367786288261414
			],
			"min":[
				0.02036779560148716,
				0.0592837817966938,
				-0.042132191359996796
			],
			"type":"VEC3"
		},
		{
			"bufferView":63,
			"componentType":5126,
			"count":1131,
			"type":"VEC3"
		},
		{
			"bufferView":64,
			"componentType":5126,
			"count":1131,
			"type":"VEC2"
		},
		{
			"bufferView":65,
			"componentType":5126,
			"count":1131,
			"type":"VEC4"
		},
		{
			"bufferView":66,
			"componentType":5126,
			"count":26773,
			"max":[
				0.021040337160229683,
				0.04976364225149155,
				0.021040335297584534
			],
			"min":[
				-0.021040331572294235,
				0,
				-0.021040333434939384
			],
			"type":"VEC3"
		},
		{
			"bufferView":67,
			"componentType":5126,
			"count":26773,
			"type":"VEC3"
		},
		{
			"bufferView":68,
			"componentType":5126,
			"count":26773,
			"type":"VEC2"
		},
		{
			"bufferView":69,
			"componentType":5126,
			"count":26773,
			"type":"VEC4"
		},
		{
			"bufferView":70,
			"componentType":5126,
			"count":1131,
			"max":[
				0.8692834377288818,
				0.36727580428123474,
				0.853557825088501
			],
			"min":[
				0.7561042904853821,
				0.25241586565971375,
				0.7403786778450012
			],
			"type":"VEC3"
		},
		{
			"bufferView":71,
			"componentType":5126,
			"count":1131,
			"type":"VEC3"
		},
		{
			"bufferView":72,
			"componentType":5126,
			"count":1131,
			"type":"VEC2"
		},
		{
			"bufferView":73,
			"componentType":5126,
			"count":1131,
			"type":"VEC4"
		},
		{
			"bufferView":74,
			"componentType":5126,
			"count":26780,
			"max":[
				0.9221076369285583,
				0.2805326282978058,
				0.9063820242881775
			],
			"min":[
				0.7032799124717712,
				0.02175191417336464,
				0.6875542998313904
			],
			"type":"VEC3"
		},
		{
			"bufferView":75,
			"componentType":5126,
			"count":26780,
			"type":"VEC3"
		},
		{
			"bufferView":76,
			"componentType":5126,
			"count":26780,
			"type":"VEC2"
		},
		{
			"bufferView":77,
			"componentType":5126,
			"count":26780,
			"type":"VEC4"
		},
		{
			"bufferView":78,
			"componentType":5123,
			"count":141696,
			"type":"SCALAR"
		},
		{
			"bufferView":79,
			"componentType":5126,
			"count":24842,
			"max":[
				-0.9974274039268494,
				0.5426182746887207,
				1.2659128904342651
			],
			"min":[
				-1.2766063213348389,
				0.037747759371995926,
				0.9867339730262756
			],
			"type":"VEC3"
		},
		{
			"bufferView":80,
			"componentType":5126,
			"count":24842,
			"type":"VEC3"
		},
		{
			"bufferView":81,
			"componentType":5126,
			"count":24842,
			"type":"VEC2"
		},
		{
			"bufferView":82,
			"componentType":5126,
			"count":24842,
			"type":"VEC4"
		},
		{
			"bufferView":83,
			"componentType":5123,
			"count":91584,
			"type":"SCALAR"
		},
		{
			"bufferView":84,
			"componentType":5126,
			"count":24823,
			"max":[
				1.2845416069030762,
				0.5426182746887207,
				1.2660257816314697
			],
			"min":[
				1.0053627490997314,
				0.037747759371995926,
				0.9868468642234802
			],
			"type":"VEC3"
		},
		{
			"bufferView":85,
			"componentType":5126,
			"count":24823,
			"type":"VEC3"
		},
		{
			"bufferView":86,
			"componentType":5126,
			"count":24823,
			"type":"VEC2"
		},
		{
			"bufferView":87,
			"componentType":5126,
			"count":24823,
			"type":"VEC4"
		},
		{
			"bufferView":88,
			"componentType":5123,
			"count":91584,
			"type":"SCALAR"
		},
		{
			"bufferView":89,
			"componentType":5126,
			"count":24824,
			"max":[
				1.2828760147094727,
				0.5364692807197571,
				-1.0185341835021973
			],
			"min":[
				1.003697156906128,
				0.03159881383180618,
				-1.297713041305542
			],
			"type":"VEC3"
		},
		{
			"bufferView":90,
			"componentType":5126,
			"count":24824,
			"type":"VEC3"
		},
		{
			"bufferView":91,
			"componentType":5126,
			"count":24824,
			"type":"VEC2"
		},
		{
			"bufferView":92,
			"componentType":5126,
			"count":24824,
			"type":"VEC4"
		},
		{
			"bufferView":93,
			"componentType":5123,
			"count":91584,
			"type":"SCALAR"
		},
		{
			"bufferView":94,
			"componentType":5126,
			"count":24562,
			"max":[
				0.0268431156873703,
				0.09708680957555771,
				0.0268431156873703
			],
			"min":[
				-0.0268431156873703,
				-3.725290298461914e-09,
				-0.0268431156873703
			],
			"type":"VEC3"
		},
		{
			"bufferView":95,
			"componentType":5126,
			"count":24562,
			"type":"VEC3"
		},
		{
			"bufferView":96,
			"componentType":5126,
			"count":24562,
			"type":"VEC2"
		},
		{
			"bufferView":97,
			"componentType":5126,
			"count":24562,
			"type":"VEC4"
		},
		{
			"bufferView":98,
			"componentType":5123,
			"count":91584,
			"type":"SCALAR"
		},
		{
			"bufferView":99,
			"componentType":5126,
			"count":6438,
			"max":[
				-0.6843595504760742,
				0.5510191321372986,
				1.2746134996414185
			],
			"min":[
				-0.9442931413650513,
				0.030383266508579254,
				0.9617840647697449
			],
			"type":"VEC3"
		},
		{
			"bufferView":100,
			"componentType":5126,
			"count":6438,
			"type":"VEC3"
		},
		{
			"bufferView":101,
			"componentType":5126,
			"count":6438,
			"type":"VEC2"
		},
		{
			"bufferView":102,
			"componentType":5126,
			"count":6438,
			"type":"VEC4"
		},
		{
			"bufferView":103,
			"componentType":5123,
			"count":33552,
			"type":"SCALAR"
		},
		{
			"bufferView":104,
			"componentType":5126,
			"count":6438,
			"max":[
				0.9549751877784729,
				0.5510191321372986,
				1.2732172012329102
			],
			"min":[
				0.6950415968894958,
				0.030383266508579254,
				0.9603877663612366
			],
			"type":"VEC3"
		},
		{
			"bufferView":105,
			"componentType":5126,
			"count":6438,
			"type":"VEC3"
		},
		{
			"bufferView":106,
			"componentType":5126,
			"count":6438,
			"type":"VEC2"
		},
		{
			"bufferView":107,
			"componentType":5126,
			"count":6438,
			"type":"VEC4"
		},
		{
			"bufferView":108,
			"componentType":5126,
			"count":6438,
			"max":[
				0.9529485702514648,
				0.5510201454162598,
				-0.9980412125587463
			],
			"min":[
				0.6930149793624878,
				0.030384231358766556,
				-1.31087064743042
			],
			"type":"VEC3"
		},
		{
			"bufferView":109,
			"componentType":5126,
			"count":6438,
			"type":"VEC3"
		},
		{
			"bufferView":110,
			"componentType":5126,
			"count":6438,
			"type":"VEC2"
		},
		{
			"bufferView":111,
			"componentType":5126,
			"count":6438,
			"type":"VEC4"
		},
		{
			"bufferView":112,
			"componentType":5123,
			"count":33552,
			"type":"SCALAR"
		},
		{
			"bufferView":113,
			"componentType":5126,
			"count":6438,
			"max":[
				0.024992674589157104,
				0.09972551465034485,
				0.028097912669181824
			],
			"min":[
				-0.024992674589157104,
				-0.00039299391210079193,
				-0.032059311866760254
			],
			"type":"VEC3"
		},
		{
			"bufferView":114,
			"componentType":5126,
			"count":6438,
			"type":"VEC3"
		},
		{
			"bufferView":115,
			"componentType":5126,
			"count":6438,
			"type":"VEC2"
		},
		{
			"bufferView":116,
			"componentType":5126,
			"count":6438,
			"type":"VEC4"
		},
		{
			"bufferView":117,
			"componentType":5126,
			"count":43571,
			"max":[
				-0.3617911636829376,
				0.675367534160614,
				1.2501049041748047
			],
			"min":[
				-0.6144907474517822,
				0.030366742983460426,
				0.9974053502082825
			],
			"type":"VEC3"
		},
		{
			"bufferView":118,
			"componentType":5126,
			"count":43571,
			"type":"VEC3"
		},
		{
			"bufferView":119,
			"componentType":5126,
			"count":43571,
			"type":"VEC2"
		},
		{
			"bufferView":120,
			"componentType":5126,
			"count":43571,
			"type":"VEC4"
		},
		{
			"bufferView":121,
			"componentType":5123,
			"count":225168,
			"type":"SCALAR"
		},
		{
			"bufferView":122,
			"componentType":5126,
			"count":43572,
			"max":[
				0.5926669836044312,
				0.675367534160614,
				1.2525075674057007
			],
			"min":[
				0.3399674594402313,
				0.030366742983460426,
				0.9998080134391785
			],
			"type":"VEC3"
		},
		{
			"bufferView":123,
			"componentType":5126,
			"count":43572,
			"type":"VEC3"
		},
		{
			"bufferView":124,
			"componentType":5126,
			"count":43572,
			"type":"VEC2"
		},
		{
			"bufferView":125,
			"componentType":5126,
			"count":43572,
			"type":"VEC4"
		},
		{
			"bufferView":126,
			"componentType":5123,
			"count":225168,
			"type":"SCALAR"
		},
		{
			"bufferView":127,
			"componentType":5126,
			"count":43581,
			"max":[
				0.5967564582824707,
				0.675367534160614,
				-1.0209319591522217
			],
			"min":[
				0.3440569341182709,
				0.030366742983460426,
				-1.2736314535140991
			],
			"type":"VEC3"
		},
		{
			"bufferView":128,
			"componentType":5126,
			"count":43581,
			"type":"VEC3"
		},
		{
			"bufferView":129,
			"componentType":5126,
			"count":43581,
			"type":"VEC2"
		},
		{
			"bufferView":130,
			"componentType":5126,
			"count":43581,
			"type":"VEC4"
		},
		{
			"bufferView":131,
			"componentType":5123,
			"count":225168,
			"type":"SCALAR"
		},
		{
			"bufferView":132,
			"componentType":5126,
			"count":43213,
			"max":[
				0.024297118186950684,
				0.12363776564598083,
				0.024310514330863953
			],
			"min":[
				-0.024297118186950684,
				-0.00039617158472537994,
				-0.024283722043037415
			],
			"type":"VEC3"
		},
		{
			"bufferView":133,
			"componentType":5126,
			"count":43213,
			"type":"VEC3"
		},
		{
			"bufferView":134,
			"componentType":5126,
			"count":43213,
			"type":"VEC2"
		},
		{
			"bufferView":135,
			"componentType":5126,
			"count":43213,
			"type":"VEC4"
		},
		{
			"bufferView":136,
			"componentType":5123,
			"count":225168,
			"type":"SCALAR"
		},
		{
			"bufferView":137,
			"componentType":5126,
			"count":96,
			"max":[
				1.8599538803100586,
				2.1444056034088135,
				1.860540509223938
			],
			"min":[
				-1.8600142002105713,
				-0.05837249755859375,
				-1.859427571296692
			],
			"type":"VEC3"
		},
		{
			"bufferView":138,
			"componentType":5126,
			"count":96,
			"type":"VEC3"
		},
		{
			"bufferView":139,
			"componentType":5126,
			"count":96,
			"type":"VEC2"
		},
		{
			"bufferView":140,
			"componentType":5126,
			"count":96,
			"type":"VEC4"
		},
		{
			"bufferView":141,
			"componentType":5123,
			"count":354,
			"type":"SCALAR"
		},
		{
			"bufferView":142,
			"componentType":5126,
			"count":4,
			"max":[
				0.3719666600227356,
				2.1444056034088135,
				0.372553288936615
			],
			"min":[
				-0.37202703952789307,
				2.1444056034088135,
				-0.37144041061401367
			],
			"type":"VEC3"
		},
		{
			"bufferView":143,
			"componentType":5126,
			"count":4,
			"type":"VEC3"
		},
		{
			"bufferView":144,
			"componentType":5126,
			"count":4,
			"type":"VEC2"
		},
		{
			"bufferView":145,
			"componentType":5126,
			"count":4,
			"type":"VEC4"
		},
		{
			"bufferView":146,
			"componentType":5123,
			"count":6,
			"type":"SCALAR"
		},
		{
			"bufferView":147,
			"componentType":5126,
			"count":12,
			"max":[
				-1.8600142002105713,
				2.1444056034088135,
				1.860540509223938
			],
			"min":[
				-1.8600142002105713,
				-0.05837249755859375,
				-1.859427571296692
			],
			"type":"VEC3"
		},
		{
			"bufferView":148,
			"componentType":5126,
			"count":12,
			"type":"VEC3"
		},
		{
			"bufferView":149,
			"componentType":5126,
			"count":12,
			"type":"VEC2"
		},
		{
			"bufferView":150,
			"componentType":5126,
			"count":12,
			"type":"VEC4"
		},
		{
			"bufferView":151,
			"componentType":5123,
			"count":30,
			"type":"SCALAR"
		}
	],
	"bufferViews":[
		{
			"buffer":0,
			"byteLength":360204,
			"byteOffset":0,
			"target":34962
		},
		{
			"buffer":0,
			"byteLength":360204,
			"byteOffset":360204,
			"target":34962
		},
		{
			"buffer":0,
			"byteLength":240136,
			"byteOffset":720408,
			"target":34962
		},
		{
			"buffer":0,
			"byteLength":480272,
			"byteOffset":960544,
			"target":34962
		},
		{
			"buffer":0,
			"byteLength":242880,
			"byteOffset":1440816,
			"target":34963
		},
		{
			"buffer":0,
			"byteLength":360324,
			"byteOffset":1683696,
			"target":34962
		},
		{
			"buffer":0,
			"byteLength":360324,
			"byteOffset":2044020,
			"target":34962
		},
		{
			"buffer":0,
			"byteLength":240216,
			"byteOffset":2404344,
			"target":34962
		},
		{
			"buffer":0,
			"byteLength":480432,
			"byteOffset":2644560,
			"target":34962
		},
		{
			"buffer":0,
			"byteLength":242880,
			"byteOffset":3124992,
			"target":34963
		},
		{
			"buffer":0,
			"byteLength":251580,
			"byteOffset":3367872,
			"target":34962
		},
		{
			"buffer":0,
			"byteLength":251580,
			"byteOffset":3619452,
			"target":34962
		},
		{
			"buffer":0,
			"byteLength":167720,
			"byteOffset":3871032,
			"target":34962
		},
		{
			"buffer":0,
			"byteLength":335440,
			"byteOffset":4038752,
			"target":34962
		},
		{
			"buffer":0,
			"byteLength":206208,
			"byteOffset":4374192,
			"target":34963
		},
		{
			"buffer":0,
			"byteLength":251556,
			"byteOffset":4580400,
			"target":34962
		},
		{
			"buffer":0,
			"byteLength":251556,
			"byteOffset":4831956,
			"target":34962
		},
		{
			"buffer":0,
			"byteLength":167704,
			"byteOffset":5083512,
			"target":34962
		},
		{
			"buffer":0,
			"byteLength":335408,
			"byteOffset":5251216,
			"target":34962
		},
		{
			"buffer":0,
			"byteLength":206208,
			"byteOffset":5586624,
			"target":34963
		},
		{
			"buffer":0,
			"byteLength":1357068,
			"byteOffset":5792832,
			"target":34962
		},
		{
			"buffer":0,
			"byteLength":1357068,
			"byteOffset":7149900,
			"target":34962
		},
		{
			"buffer":0,
			"byteLength":904712,
			"byteOffset":8506968,
			"target":34962
		},
		{
			"buffer":0,
			"byteLength":1809424,
			"byteOffset":9411680,
			"target":34962
		},
		{
			"buffer":0,
			"byteLength":1108992,
			"byteOffset":11221104,
			"target":34963
		},
		{
			"buffer":0,
			"byteLength":13572,
			"byteOffset":12330096,
			"target":34962
		},
		{
			"buffer":0,
			"byteLength":13572,
			"byteOffset":12343668,
			"target":34962
		},
		{
			"buffer":0,
			"byteLength":9048,
			"byteOffset":12357240,
			"target":34962
		},
		{
			"buffer":0,
			"byteLength":18096,
			"byteOffset":12366288,
			"target":34962
		},
		{
			"buffer":0,
			"byteLength":13248,
			"byteOffset":12384384,
			"target":34963
		},
		{
			"buffer":0,
			"byteLength":321276,
			"byteOffset":12397632,
			"target":34962
		},
		{
			"buffer":0,
			"byteLength":321276,
			"byteOffset":12718908,
			"target":34962
		},
		{
			"buffer":0,
			"byteLength":214184,
			"byteOffset":13040184,
			"target":34962
		},
		{
			"buffer":0,
			"byteLength":428368,
			"byteOffset":13254368,
			"target":34962
		},
		{
			"buffer":0,
			"byteLength":283392,
			"byteOffset":13682736,
			"target":34963
		},
		{
			"buffer":0,
			"byteLength":13572,
			"byteOffset":13966128,
			"target":34962
		},
		{
			"buffer":0,
			"byteLength":13572,
			"byteOffset":13979700,
			"target":34962
		},
		{
			"buffer":0,
			"byteLength":9048,
			"byteOffset":13993272,
			"target":34962
		},
		{
			"buffer":0,
			"byteLength":18096,
			"byteOffset":14002320,
			"target":34962
		},
		{
			"buffer":0,
			"byteLength":321372,
			"byteOffset":14020416,
			"target":34962
		},
		{
			"buffer":0,
			"byteLength":321372,
			"byteOffset":14341788,
			"target":34962
		},
		{
			"buffer":0,
			"byteLength":214248,
			"byteOffset":14663160,
			"target":34962
		},
		{
			"buffer":0,
			"byteLength":428496,
			"byteOffset":14877408,
			"target":34962
		},
		{
			"buffer":0,
			"byteLength":283392,
			"byteOffset":15305904,
			"target":34963
		},
		{
			"buffer":0,
			"byteLength":13572,
			"byteOffset":15589296,
			"target":34962
		},
		{
			"buffer":0,
			"byteLength":13572,
			"byteOffset":15602868,
			"target":34962
		},
		{
			"buffer":0,
			"byteLength":9048,
			"byteOffset":15616440,
			"target":34962
		},
		{
			"buffer":0,
			"byteLength":18096,
			"byteOffset":15625488,
			"target":34962
		},
		{
			"buffer":0,
			"byteLength":321300,
			"byteOffset":15643584,
			"target":34962
		},
		{
			"buffer":0,
			"byteLength":321300,
			"byteOffset":15964884,
			"target":34962
		},
		{
			"buffer":0,
			"byteLength":214200,
			"byteOffset":16286184,
			"target":34962
		},
		{
			"buffer":0,
			"byteLength":428400,
			"byteOffset":16500384,
			"target":34962
		},
		{
			"buffer":0,
			"byteLength":283392,
			"byteOffset":16928784,
			"target":34963
		},
		{
			"buffer":0,
			"byteLength":13572,
			"byteOffset":17212176,
			"target":34962
		},
		{
			"buffer":0,
			"byteLength":13572,
			"byteOffset":17225748,
			"target":34962
		},
		{
			"buffer":0,
			"byteLength":9048,
			"byteOffset":17239320,
			"target":34962
		},
		{
			"buffer":0,
			"byteLength":18096,
			"byteOffset":17248368,
			"target":34962
		},
		{
			"buffer":0,
			"byteLength":321384,
			"byteOffset":17266464,
			"target":34962
		},
		{
			"buffer":0,
			"byteLength":321384,
			"byteOffset":17587848,
			"target":34962
		},
		{
			"buffer":0,
			"byteLength":214256,
			"byteOffset":17909232,
			"target":34962
		},
		{
			"buffer":0,
			"byteLength":428512,
			"byteOffset":18123488,
			"target":34962
		},
		{
			"buffer":0,
			"byteLength":283392,
			"byteOffset":18552000,
			"target":34963
		},
		{
			"buffer":0,
			"byteLength":13572,
			"byteOffset":18835392,
			"target":34962
		},
		{
			"buffer":0,
			"byteLength":13572,
			"byteOffset":18848964,
			"target":34962
		},
		{
			"buffer":0,
			"byteLength":9048,
			"byteOffset":18862536,
			"target":34962
		},
		{
			"buffer":0,
			"byteLength":18096,
			"byteOffset":18871584,
			"target":34962
		},
		{
			"buffer":0,
			"byteLength":321276,
			"byteOffset":18889680,
			"target":34962
		},
		{
			"buffer":0,
			"byteLength":321276,
			"byteOffset":19210956,
			"target":34962
		},
		{
			"buffer":0,
			"byteLength":214184,
			"byteOffset":19532232,
			"target":34962
		},
		{
			"buffer":0,
			"byteLength":428368,
			"byteOffset":19746416,
			"target":34962
		},
		{
			"buffer":0,
			"byteLength":13572,
			"byteOffset":20174784,
			"target":34962
		},
		{
			"buffer":0,
			"byteLength":13572,
			"byteOffset":20188356,
			"target":34962
		},
		{
			"buffer":0,
			"byteLength":9048,
			"byteOffset":20201928,
			"target":34962
		},
		{
			"buffer":0,
			"byteLength":18096,
			"byteOffset":20210976,
			"target":34962
		},
		{
			"buffer":0,
			"byteLength":321360,
			"byteOffset":20229072,
			"target":34962
		},
		{
			"buffer":0,
			"byteLength":321360,
			"byteOffset":20550432,
			"target":34962
		},
		{
			"buffer":0,
			"byteLength":214240,
			"byteOffset":20871792,
			"target":34962
		},
		{
			"buffer":0,
			"byteLength":428480,
			"byteOffset":21086032,
			"target":34962
		},
		{
			"buffer":0,
			"byteLength":283392,
			"byteOffset":21514512,
			"target":34963
		},
		{
			"buffer":0,
			"byteLength":298104,
			"byteOffset":21797904,
			"target":34962
		},
		{
			"buffer":0,
			"byteLength":298104,
			"byteOffset":22096008,
			"target":34962
		},
		{
			"buffer":0,
			"byteLength":198736,
			"byteOffset":22394112,
			"target":34962
		},
		{
			"buffer":0,
			"byteLength":397472,
			"byteOffset":22592848,
			"target":34962
		},
		{
			"buffer":0,
			"byteLength":183168,
			"byteOffset":22990320,
			"target":34963
		},
		{
			"buffer":0,
			"byteLength":297876,
			"byteOffset":23173488,
			"target":34962
		},
		{
			"buffer":0,
			"byteLength":297876,
			"byteOffset":23471364,
			"target":34962
		},
		{
			"buffer":0,
			"byteLength":198584,
			"byteOffset":23769240,
			"target":34962
		},
		{
			"buffer":0,
			"byteLength":397168,
			"byteOffset":23967824,
			"target":34962
		},
		{
			"buffer":0,
			"byteLength":183168,
			"byteOffset":24364992,
			"target":34963
		},
		{
			"buffer":0,
			"byteLength":297888,
			"byteOffset":24548160,
			"target":34962
		},
		{
			"buffer":0,
			"byteLength":297888,
			"byteOffset":24846048,
			"target":34962
		},
		{
			"buffer":0,
			"byteLength":198592,
			"byteOffset":25143936,
			"target":34962
		},
		{
			"buffer":0,
			"byteLength":397184,
			"byteOffset":25342528,
			"target":34962
		},
		{
			"buffer":0,
			"byteLength":183168,
			"byteOffset":25739712,
			"target":34963
		},
		{
			"buffer":0,
			"byteLength":294744,
			"byteOffset":25922880,
			"target":34962
		},
		{
			"buffer":0,
			"byteLength":294744,
			"byteOffset":26217624,
			"target":34962
		},
		{
			"buffer":0,
			"byteLength":196496,
			"byteOffset":26512368,
			"target":34962
		},
		{
			"buffer":0,
			"byteLength":392992,
			"byteOffset":26708864,
			"target":34962
		},
		{
			"buffer":0,
			"byteLength":183168,
			"byteOffset":27101856,
			"target":34963
		},
		{
			"buffer":0,
			"byteLength":77256,
			"byteOffset":27285024,
			"target":34962
		},
		{
			"buffer":0,
			"byteLength":77256,
			"byteOffset":27362280,
			"target":34962
		},
		{
			"buffer":0,
			"byteLength":51504,
			"byteOffset":27439536,
			"target":34962
		},
		{
			"buffer":0,
			"byteLength":103008,
			"byteOffset":27491040,
			"target":34962
		},
		{
			"buffer":0,
			"byteLength":67104,
			"byteOffset":27594048,
			"target":34963
		},
		{
			"buffer":0,
			"byteLength":77256,
			"byteOffset":27661152,
			"target":34962
		},
		{
			"buffer":0,
			"byteLength":77256,
			"byteOffset":27738408,
			"target":34962
		},
		{
			"buffer":0,
			"byteLength":51504,
			"byteOffset":27815664,
			"target":34962
		},
		{
			"buffer":0,
			"byteLength":103008,
			"byteOffset":27867168,
			"target":34962
		},
		{
			"buffer":0,
			"byteLength":77256,
			"byteOffset":27970176,
			"target":34962
		},
		{
			"buffer":0,
			"byteLength":77256,
			"byteOffset":28047432,
			"target":34962
		},
		{
			"buffer":0,
			"byteLength":51504,
			"byteOffset":28124688,
			"target":34962
		},
		{
			"buffer":0,
			"byteLength":103008,
			"byteOffset":28176192,
			"target":34962
		},
		{
			"buffer":0,
			"byteLength":67104,
			"byteOffset":28279200,
			"target":34963
		},
		{
			"buffer":0,
			"byteLength":77256,
			"byteOffset":28346304,
			"target":34962
		},
		{
			"buffer":0,
			"byteLength":77256,
			"byteOffset":28423560,
			"target":34962
		},
		{
			"buffer":0,
			"byteLength":51504,
			"byteOffset":28500816,
			"target":34962
		},
		{
			"buffer":0,
			"byteLength":103008,
			"byteOffset":28552320,
			"target":34962
		},
		{
			"buffer":0,
			"byteLength":522852,
			"byteOffset":28655328,
			"target":34962
		},
		{
			"buffer":0,
			"byteLength":522852,
			"byteOffset":29178180,
			"target":34962
		},
		{
			"buffer":0,
			"byteLength":348568,
			"byteOffset":29701032,
			"target":34962
		},
		{
			"buffer":0,
			"byteLength":697136,
			"byteOffset":30049600,
			"target":34962
		},
		{
			"buffer":0,
			"byteLength":450336,
			"byteOffset":30746736,
			"target":34963
		},
		{
			"buffer":0,
			"byteLength":522864,
			"byteOffset":31197072,
			"target":34962
		},
		{
			"buffer":0,
			"byteLength":522864,
			"byteOffset":31719936,
			"target":34962
		},
		{
			"buffer":0,
			"byteLength":348576,
			"byteOffset":32242800,
			"target":34962
		},
		{
			"buffer":0,
			"byteLength":697152,
			"byteOffset":32591376,
			"target":34962
		},
		{
			"buffer":0,
			"byteLength":450336,
			"byteOffset":33288528,
			"target":34963
		},
		{
			"buffer":0,
			"byteLength":522972,
			"byteOffset":33738864,
			"target":34962
		},
		{
			"buffer":0,
			"byteLength":522972,
			"byteOffset":34261836,
			"target":34962
		},
		{
			"buffer":0,
			"byteLength":348648,
			"byteOffset":34784808,
			"target":34962
		},
		{
			"buffer":0,
			"byteLength":697296,
			"byteOffset":35133456,
			"target":34962
		},
		{
			"buffer":0,
			"byteLength":450336,
			"byteOffset":35830752,
			"target":34963
		},
		{
			"buffer":0,
			"byteLength":518556,
			"byteOffset":36281088,
			"target":34962
		},
		{
			"buffer":0,
			"byteLength":518556,
			"byteOffset":36799644,
			"target":34962
		},
		{
			"buffer":0,
			"byteLength":345704,
			"byteOffset":37318200,
			"target":34962
		},
		{
			"buffer":0,
			"byteLength":691408,
			"byteOffset":37663904,
			"target":34962
		},
		{
			"buffer":0,
			"byteLength":450336,
			"byteOffset":38355312,
			"target":34963
		},
		{
			"buffer":0,
			"byteLength":1152,
			"byteOffset":38805648,
			"target":34962
		},
		{
			"buffer":0,
			"byteLength":1152,
			"byteOffset":38806800,
			"target":34962
		},
		{
			"buffer":0,
			"byteLength":768,
			"byteOffset":38807952,
			"target":34962
		},
		{
			"buffer":0,
			"byteLength":1536,
			"byteOffset":38808720,
			"target":34962
		},
		{
			"buffer":0,
			"byteLength":708,
			"byteOffset":38810256,
			"target":34963
		},
		{
			"buffer":0,
			"byteLength":48,
			"byteOffset":38810964,
			"target":34962
		},
		{
			"buffer":0,
			"byteLength":48,
			"byteOffset":38811012,
			"target":34962
		},
		{
			"buffer":0,
			"byteLength":32,
			"byteOffset":38811060,
			"target":34962
		},
		{
			"buffer":0,
			"byteLength":64,
			"byteOffset":38811092,
			"target":34962
		},
		{
			"buffer":0,
			"byteLength":12,
			"byteOffset":38811156,
			"target":34963
		},
		{
			"buffer":0,
			"byteLength":144,
			"byteOffset":38811168,
			"target":34962
		},
		{
			"buffer":0,
			"byteLength":144,
			"byteOffset":38811312,
			"target":34962
		},
		{
			"buffer":0,
			"byteLength":96,
			"byteOffset":38811456,
			"target":34962
		},
		{
			"buffer":0,
			"byteLength":192,
			"byteOffset":38811552,
			"target":34962
		},
		{
			"buffer":0,
			"byteLength":60,
			"byteOffset":38811744,
			"target":34963
		}
	],
	"samplers":[
		{
			"magFilter":9729,
			"minFilter":9987
		}
	],
	"buffers":[
		{
			"byteLength":38811804,
			"uri":"Chess.bin"
		}
	]
}
